<svg xmlns="http://www.w3.org/2000/svg" style="display:none">
  <symbol id="eye" viewBox="0 0 24 24">
    <path d="M12 5c-7 0-11 7-11 7s4 7 11 7 11-7 11-7-4-7-11-7zm0 12a5 5 0 1 1 0-10 5 5 0 0 1 0 10z"/>
  </symbol>
  <symbol id="edit" viewBox="0 0 24 24">
    <path d="M3 17.25V21h3.75L17.81 9.94l-3.75-3.75L3 17.25zM20.71 7.04a1 1 0 0 0 0-1.41l-2.34-2.34a1 1 0 0 0-1.41 0l-1.83 1.83 3.75 3.75 1.83-1.83z"/>
  </symbol>
  <symbol id="trash" viewBox="0 0 24 24">
    <path d="M3 6h18v2H3V6zm2 3h14l-1.5 12h-11L5 9zm5-5h4l1 2H9l1-2z"/>
  </symbol>
  <symbol id="sun" viewBox="0 0 24 24">
    <path d="M6.76 4.84l-1.8-1.79L3.88 4.14l1.79 1.8 1.09-1.1zM1 13h3v-2H1v2zm10 10h2v-3h-2v3zM4.14 20.12l1.8-1.79-1.09-1.1-1.8 1.79 1.09 1.1zM20.12 4.14l-1.79-1.8-1.1 1.09 1.79 1.8 1.1-1.09zM21 13h3v-2h-3v2zM19.86 20.12l1.09-1.1-1.8-1.79-1.09 1.1 1.8 1.79zM13 1h-2v3h2V1zm-1 5a6 6 0 1 0 0 12 6 6 0 0 0 0-12z"/>
  </symbol>
  <symbol id="moon" viewBox="0 0 24 24">
    <path d="M12 2a9.99 9.99 0 0 0 0 20 10 10 0 0 1 0-20z"/>
  </symbol>
  <symbol id="print" viewBox="0 0 24 24">
    <path d="M6 2h12v6H6V2zm12 8h2a2 2 0 0 1 2 2v6h-4v4H6v-4H2v-6a2 2 0 0 1 2-2h2v2H4v8h4v-4h8v4h4v-8h-4v-2z"/>
  </symbol>
  <symbol id="dashboard" viewBox="0 0 24 24">
    <path d="M3 3h8v8H3V3zm10 0h8v5h-8V3zM3 13h5v8H3v-8zm7 5h11v3H10v-3z"/>
  </symbol>
  <symbol id="settings" viewBox="0 0 24 24">
    <path d="M12 8a4 4 0 1 0 0 8 4 4 0 0 0 0-8zm8.14 3a7.94 7.94 0 0 0-.5-1.2l2-2-2.83-2.83-2 2a7.94 7.94 0 0 0-1.2-.5L14 2h-4l-.61 2.47c-.42.16-.82.35-1.2.57l-2-2-2.83 2.83 2 2c-.22.38-.41.78-.57 1.2L2 10v4l2.47.61c.16.42.35.82.57 1.2l-2 2 2.83 2.83 2-2c.38.22.78.41 1.2.57L10 22h4l.61-2.47c.42-.16.82-.35 1.2-.57l2 2 2.83-2.83-2-2c.22-.38.41-.78.57-1.2L22 14v-4l-1.86-.99z"/>
  </symbol>
  <symbol id="clients" viewBox="0 0 24 24">
    <path d="M12 12a4 4 0 1 0 0-8 4 4 0 0 0 0 8zm-8 8v-1a6 6 0 0 1 12 0v1H4z"/>
  </symbol>
  <symbol id="printers" viewBox="0 0 24 24">
    <path d="M6 2h12v5H6V2zm15 7H3a2 2 0 0 0-2 2v6h5v5h12v-5h5v-6a2 2 0 0 0-2-2zm-5 11H8v-4h8v4z"/>
  </symbol>
  <symbol id="filaments" viewBox="0 0 24 24">
    <path d="M12 2C7 2 3 4 3 7s4 5 9 5 9-2 9-5-4-5-9-5zm0 8c-4 0-7-1.34-7-3s3-3 7-3 7 1.34 7 3-3 3-7 3zm0 3c-5 0-9 2-9 5v2h18v-2c0-3-4-5-9-5z"/>
  </symbol>
  <symbol id="services" viewBox="0 0 24 24">
    <path d="M22 12l-4-4-3 3 4 4 3-3zM2 17l7-1-6-6 3-3 6 6 1-7 3 3-2 8-8 2-3-3z"/>
  </symbol>
  <symbol id="budgets" viewBox="0 0 24 24">
    <path d="M4 4h16v2H4V4zm0 4h16v2H4V8zm0 4h16v6H4v-6zm2 2h12v2H6v-2z"/>
  </symbol>
  <symbol id="money" viewBox="0 0 24 24">
    <path d="M3 6h18v12H3V6zm2 2v8h14V8H5zm7 9a4 4 0 1 1 0-8 4 4 0 0 1 0 8zm0-2a2 2 0 1 0 0-4 2 2 0 0 0 0 4z"/>
  </symbol>
  <symbol id="check" viewBox="0 0 24 24">
    <path d="M9 16.17l-3.88-3.88-1.41 1.41L9 19l11-11-1.41-1.41z"/>
  </symbol>
  <symbol id="clock" viewBox="0 0 24 24">
    <path d="M12 2a10 10 0 1 0 0 20 10 10 0 0 0 0-20zm1 11h5v-2h-4V7h-2v6z"/>
  </symbol>
  <symbol id="list" viewBox="0 0 24 24">
    <path d="M3 5h3v3H3V5zm0 6h3v3H3v-3zm0 6h3v3H3v-3zM8 6h13v2H8V6zm0 6h13v2H8v-2zm0 6h13v2H8v-2z"/>
  </symbol>
  <symbol id="toolbox" viewBox="0 0 24 24">
    <path d="M7 6h10v2h4v12H3V8h4V6zm2 0v2h6V6H9z"/>
  </symbol>
  <symbol id="trending" viewBox="0 0 24 24">
    <path d="M3 17l6-6 4 4 7-7v5h2V7h-6v2h5l-6 6-4-4-7 7z"/>
  </symbol>
</svg>